<svg width="32" height="32" viewBox="0 0 32 32" fill="none" xmlns="http://www.w3.org/2000/svg">
<path fill-rule="evenodd" clip-rule="evenodd" d="M25.6058 2.31898C25.4606 1.92655 25.0864 1.66602 24.668 1.66602C24.2496 1.66602 23.8753 1.92655 23.7301 2.31898L23.3862 3.24835C22.9036 4.55282 22.7496 4.90723 22.4961 5.16076C22.2425 5.4143 21.8881 5.56824 20.5837 6.05094L19.6542 6.39483C19.2618 6.54004 19.0013 6.91424 19.0013 7.33268C19.0013 7.75112 19.2618 8.12532 19.6542 8.27054L20.5837 8.61443C21.8881 9.09712 22.2425 9.25107 22.4961 9.5046C22.7496 9.75813 22.9036 10.1125 23.3862 11.417L23.7301 12.3464C23.8753 12.7388 24.2496 12.9993 24.668 12.9993C25.0864 12.9993 25.4606 12.7388 25.6058 12.3464L25.9497 11.417C26.4324 10.1125 26.5864 9.75813 26.8398 9.5046C27.0934 9.25107 27.4478 9.09712 28.7524 8.61443L29.6817 8.27054C30.0741 8.12532 30.3346 7.75112 30.3346 7.33268C30.3346 6.91424 30.0741 6.54004 29.6817 6.39483L28.7524 6.05094C27.4478 5.56824 27.0934 5.4143 26.8398 5.16076C26.5864 4.90723 26.4324 4.55282 25.9497 3.24835L25.6058 2.31898ZM17.3552 7.00194C16.7386 6.99935 16.0888 6.99935 15.4036 6.99935H15.4H15.2694C12.3392 6.99934 10.0536 6.99934 8.27276 7.20096C6.46502 7.40563 5.02528 7.83111 3.87882 8.79654C2.70756 9.78287 2.1675 11.0581 1.91236 12.6562C1.66792 14.1873 1.66794 16.1387 1.66797 18.5785V18.7533C1.66794 21.1933 1.66792 23.1447 1.91236 24.6757C2.1675 26.2739 2.70756 27.5492 3.87882 28.5355C5.02528 29.5009 6.46502 29.9264 8.27276 30.1311C10.0536 30.3327 12.339 30.3327 15.2693 30.3327H15.3998C18.3301 30.3327 20.6157 30.3327 22.3965 30.1311C24.2042 29.9264 25.644 29.5009 26.7905 28.5355C27.9617 27.5492 28.5018 26.2739 28.7569 24.6757C29.0013 23.1447 29.0013 21.1933 29.0013 18.7533V18.5787C29.0013 16.1387 29.0013 14.1873 28.7569 12.6562C28.6378 11.9106 28.4568 11.2353 28.1786 10.6268C28.1204 10.6517 28.0704 10.6738 28.0284 10.6931C27.9297 10.9073 27.759 11.3301 27.5128 11.9954L27.1689 12.9248C26.7817 13.9712 25.7838 14.666 24.668 14.666C23.5521 14.666 22.5542 13.9712 22.167 12.9248L21.8232 11.9954C21.5769 11.3301 21.4062 10.9073 21.3076 10.6931C21.0933 10.5945 20.6706 10.4237 20.0053 10.1775L19.0758 9.83362C18.0294 9.44638 17.3346 8.44852 17.3346 7.33268C17.3346 7.22108 17.3416 7.11068 17.3552 7.00194ZM16.0013 12.3327C15.449 12.3327 15.0013 12.7804 15.0013 13.3327V23.9993C15.0013 24.5516 15.449 24.9993 16.0013 24.9993C16.5536 24.9993 17.0013 24.5516 17.0013 23.9993V13.3327C17.0013 12.7804 16.5536 12.3327 16.0013 12.3327ZM11.0013 15.9993C11.0013 15.4471 11.449 14.9993 12.0013 14.9993C12.5536 14.9993 13.0013 15.4471 13.0013 15.9993V21.3327C13.0013 21.8849 12.5536 22.3327 12.0013 22.3327C11.449 22.3327 11.0013 21.8849 11.0013 21.3327V15.9993ZM8.0013 16.3327C7.44902 16.3327 7.0013 16.7804 7.0013 17.3327V19.9993C7.0013 20.5516 7.44902 20.9993 8.0013 20.9993C8.5536 20.9993 9.0013 20.5516 9.0013 19.9993V17.3327C9.0013 16.7804 8.5536 16.3327 8.0013 16.3327ZM21.0013 15.9993C21.0013 15.4471 20.5536 14.9993 20.0013 14.9993C19.449 14.9993 19.0013 15.4471 19.0013 15.9993V21.3327C19.0013 21.8849 19.449 22.3327 20.0013 22.3327C20.5536 22.3327 21.0013 21.8849 21.0013 21.3327V15.9993ZM24.0013 16.3327C24.5536 16.3327 25.0013 16.7804 25.0013 17.3327V19.9993C25.0013 20.5516 24.5536 20.9993 24.0013 20.9993C23.449 20.9993 23.0013 20.5516 23.0013 19.9993V17.3327C23.0013 16.7804 23.449 16.3327 24.0013 16.3327Z" fill="currentColor"/>
</svg>
