<svg width="24" height="19" viewBox="0 0 24 19" fill="none" xmlns="http://www.w3.org/2000/svg">
<g clip-path="url(#clip0_597_7898)">
<path d="M12 0C12.6638 0 13.2 0.530664 13.2 1.1875V3.5625H17.7C19.1925 3.5625 20.4 4.75742 20.4 6.23438V16.3281C20.4 17.8051 19.1925 19 17.7 19H6.3C4.8075 19 3.6 17.8051 3.6 16.3281V6.23438C3.6 4.75742 4.8075 3.5625 6.3 3.5625H10.8V1.1875C10.8 0.530664 11.3363 0 12 0ZM7.8 14.25C7.47 14.25 7.2 14.5172 7.2 14.8438C7.2 15.1703 7.47 15.4375 7.8 15.4375H9C9.33 15.4375 9.6 15.1703 9.6 14.8438C9.6 14.5172 9.33 14.25 9 14.25H7.8ZM11.4 14.25C11.07 14.25 10.8 14.5172 10.8 14.8438C10.8 15.1703 11.07 15.4375 11.4 15.4375H12.6C12.93 15.4375 13.2 15.1703 13.2 14.8438C13.2 14.5172 12.93 14.25 12.6 14.25H11.4ZM15 14.25C14.67 14.25 14.4 14.5172 14.4 14.8438C14.4 15.1703 14.67 15.4375 15 15.4375H16.2C16.53 15.4375 16.8 15.1703 16.8 14.8438C16.8 14.5172 16.53 14.25 16.2 14.25H15ZM9.9 9.5C9.9 9.10632 9.74197 8.72876 9.46066 8.45039C9.17936 8.17201 8.79782 8.01562 8.4 8.01562C8.00218 8.01562 7.62064 8.17201 7.33934 8.45039C7.05804 8.72876 6.9 9.10632 6.9 9.5C6.9 9.89368 7.05804 10.2712 7.33934 10.5496C7.62064 10.828 8.00218 10.9844 8.4 10.9844C8.79782 10.9844 9.17936 10.828 9.46066 10.5496C9.74197 10.2712 9.9 9.89368 9.9 9.5ZM15.6 10.9844C15.9978 10.9844 16.3794 10.828 16.6607 10.5496C16.942 10.2712 17.1 9.89368 17.1 9.5C17.1 9.10632 16.942 8.72876 16.6607 8.45039C16.3794 8.17201 15.9978 8.01562 15.6 8.01562C15.2022 8.01562 14.8206 8.17201 14.5393 8.45039C14.258 8.72876 14.1 9.10632 14.1 9.5C14.1 9.89368 14.258 10.2712 14.5393 10.5496C14.8206 10.828 15.2022 10.9844 15.6 10.9844ZM1.8 8.3125H2.4V15.4375H1.8C0.80625 15.4375 0 14.6396 0 13.6562V10.0938C0 9.11035 0.80625 8.3125 1.8 8.3125ZM22.2 8.3125C23.1938 8.3125 24 9.11035 24 10.0938V13.6562C24 14.6396 23.1938 15.4375 22.2 15.4375H21.6V8.3125H22.2Z" fill="black"/>
</g>
<defs>
<clipPath id="clip0_597_7898">
<rect width="24" height="19" fill="white"/>
</clipPath>
</defs>
</svg>
