<svg width="32" height="33" viewBox="0 0 32 33" fill="none" xmlns="http://www.w3.org/2000/svg">
<path d="M6.66667 28.5C5.93333 28.5 5.30578 28.2391 4.784 27.7173C4.26222 27.1956 4.00089 26.5676 4 25.8333V9.20001C4 8.8889 4.05022 8.5889 4.15067 8.30001C4.25111 8.01112 4.40089 7.74445 4.6 7.50001L6.26667 5.46667C6.51111 5.15556 6.81644 4.91645 7.18267 4.74934C7.54889 4.58223 7.93244 4.49912 8.33333 4.50001H23.6667C24.0667 4.50001 24.4502 4.58356 24.8173 4.75067C25.1844 4.91778 25.4898 5.15645 25.7333 5.46667L27.4 7.50001C27.6 7.74445 27.7502 8.01112 27.8507 8.30001C27.9511 8.5889 28.0009 8.8889 28 9.20001V25.8333C28 26.5667 27.7391 27.1947 27.2173 27.7173C26.6956 28.24 26.0676 28.5009 25.3333 28.5H6.66667ZM7.2 8.50001H24.8L23.6667 7.16667H8.33333L7.2 8.50001ZM16 13.8333C15.6222 13.8333 15.3058 13.9613 15.0507 14.2173C14.7956 14.4733 14.6676 14.7898 14.6667 15.1667V19.4333L13.4667 18.2333C13.2222 17.9889 12.9111 17.8667 12.5333 17.8667C12.1556 17.8667 11.8444 17.9889 11.6 18.2333C11.3556 18.4778 11.2333 18.7889 11.2333 19.1667C11.2333 19.5445 11.3556 19.8556 11.6 20.1L15.0667 23.5667C15.3333 23.8333 15.6444 23.9667 16 23.9667C16.3556 23.9667 16.6667 23.8333 16.9333 23.5667L20.4 20.1C20.6444 19.8556 20.7667 19.5445 20.7667 19.1667C20.7667 18.7889 20.6444 18.4778 20.4 18.2333C20.1556 17.9889 19.8444 17.8667 19.4667 17.8667C19.0889 17.8667 18.7778 17.9889 18.5333 18.2333L17.3333 19.4333V15.1667C17.3333 14.7889 17.2053 14.4725 16.9493 14.2173C16.6933 13.9622 16.3769 13.8342 16 13.8333Z" fill="currentColor"/>
</svg>
