<svg width="24" height="24" viewBox="0 0 24 24" fill="currentColor" xmlns="http://www.w3.org/2000/svg">
<g clip-path="url(#clip0_630_6322)">
<path d="M15.6064 7.66495L14.0839 6.14395L6.47138 13.755C6.17157 14.0549 5.93377 14.4109 5.77155 14.8027C5.60933 15.1945 5.52588 15.6144 5.52595 16.0385C5.52601 16.4625 5.60961 16.8824 5.77196 17.2742C5.9343 17.666 6.17222 18.0219 6.47213 18.3217C6.77203 18.6215 7.12805 18.8593 7.51986 19.0215C7.91167 19.1837 8.33159 19.2672 8.75566 19.2671C9.17972 19.2671 9.59961 19.1835 9.99137 19.0211C10.3831 18.8588 10.7391 18.6209 11.0389 18.321L20.1739 9.18745C21.1832 8.17797 21.7501 6.8089 21.7499 5.38142C21.7498 3.95394 21.1826 2.58499 20.1731 1.5757C19.1636 0.566423 17.7946 -0.000506837 16.3671 -0.000366185C14.9396 -0.000225532 13.5707 0.566974 12.5614 1.57645L2.97038 11.166L2.94938 11.1855C0.016875 14.118 0.016875 18.87 2.94938 21.801C5.88188 24.732 10.6339 24.732 13.5664 21.801L13.5859 21.78L13.5874 21.7815L20.1349 15.2355L18.6124 13.7145L12.0649 20.259L12.0454 20.2785C11.0406 21.2813 9.67897 21.8445 8.25937 21.8445C6.83978 21.8445 5.47817 21.2813 4.47338 20.2785C3.97496 19.7795 3.58 19.187 3.31119 18.535C3.04238 17.883 2.90501 17.1843 2.90696 16.4791C2.90891 15.7739 3.05015 15.0759 3.32256 14.4254C3.59498 13.7749 3.9932 13.1846 4.49438 12.6885L4.49288 12.687L14.0854 3.09745C15.3439 1.83745 17.3929 1.83745 18.6529 3.09745C19.9129 4.35745 19.9114 6.40495 18.6529 7.66345L9.51787 16.797C9.31344 16.985 9.04426 17.0868 8.76655 17.0811C8.48884 17.0753 8.22409 16.9625 8.02758 16.7662C7.83107 16.5699 7.71801 16.3053 7.71201 16.0276C7.70601 15.7499 7.80753 15.4806 7.99537 15.276L15.6079 7.66345L15.6064 7.66495Z" fill="currentColor"/>
</g>
<defs>
<clipPath id="clip0_630_6322">
<rect width="24" height="24" fill="currentColor"/>
</clipPath>
</defs>
</svg>
