<?xml version="1.0" standalone="no"?>
<!DOCTYPE svg PUBLIC "-//W3C//DTD SVG 20010904//EN"
 "http://www.w3.org/TR/2001/REC-SVG-20010904/DTD/svg10.dtd">
<svg version="1.0" xmlns="http://www.w3.org/2000/svg"
 width="512.000000pt" height="512.000000pt" viewBox="0 0 512.000000 512.000000"
 preserveAspectRatio="xMidYMid meet">

<g transform="translate(0.000000,512.000000) scale(0.100000,-0.100000)"
fill="currentColor" stroke="none">
<path d="M3978 4648 c-9 -7 -134 -155 -278 -328 -144 -173 -265 -316 -269
-317 -3 -2 -71 102 -151 230 -153 242 -166 258 -223 243 -51 -12 -54 -26 -87
-464 -30 -383 -31 -414 -16 -437 29 -44 102 -46 130 -2 10 15 21 106 36 297
12 151 22 275 23 276 1 1 52 -78 112 -175 115 -182 134 -201 186 -188 15 4 97
94 229 252 112 136 206 242 208 237 2 -6 -20 -136 -47 -289 -28 -153 -51 -286
-51 -296 0 -25 45 -67 72 -67 13 0 142 38 288 84 146 47 265 84 266 83 1 -1
-79 -87 -177 -192 -98 -104 -182 -201 -185 -214 -16 -56 1 -71 191 -168 104
-53 174 -94 165 -97 -8 -2 -118 -22 -245 -42 -253 -42 -275 -51 -275 -114 0
-35 38 -80 67 -80 10 0 187 28 393 62 329 54 378 65 397 85 25 24 30 62 13 94
-6 11 -115 71 -255 142 l-243 122 131 140 c375 400 377 403 377 435 0 37 -38
80 -71 80 -12 0 -179 -50 -371 -111 -192 -61 -351 -109 -352 -107 -2 2 28 170
65 373 37 204 68 380 69 393 1 52 -81 92 -122 60z"/>
<path d="M1245 3385 c-116 -57 -254 -232 -296 -372 -7 -24 -13 -43 -14 -43 -2
0 -16 7 -31 15 -39 20 -400 21 -457 1 -55 -20 -103 -61 -134 -114 -24 -40 -28
-58 -28 -122 1 -156 84 -233 277 -260 61 -8 86 -16 81 -24 -3 -6 -19 -29 -33
-51 -55 -81 -60 -112 -60 -400 0 -242 2 -269 20 -319 12 -30 29 -65 40 -78 16
-21 19 -46 22 -189 3 -161 4 -167 31 -207 15 -23 46 -54 69 -69 l41 -28 270
-3 269 -3 55 26 c106 53 158 200 93 265 -44 44 -130 6 -130 -57 0 -16 -7 -39
-16 -51 -15 -22 -19 -22 -253 -22 -284 0 -271 -6 -271 116 l0 79 341 -3 c371
-4 388 -2 409 49 13 31 1 81 -24 97 -6 4 -162 9 -347 12 l-336 5 -41 28 c-23
15 -51 45 -62 68 -20 38 -21 54 -18 297 l3 257 62 90 c34 50 65 102 68 116 8
34 -16 93 -47 113 -12 8 -84 24 -158 36 -149 22 -173 31 -189 67 -18 40 -13
73 18 104 l29 29 160 0 159 0 42 -64 c75 -116 199 -208 326 -242 37 -10 139
-14 398 -14 l349 0 30 30 c25 26 29 36 24 63 -13 68 -9 67 -397 67 -320 0
-353 2 -399 19 -68 26 -141 81 -134 101 4 8 15 49 25 90 30 116 82 213 155
286 l64 64 800 0 800 0 64 -64 c49 -48 76 -87 112 -162 38 -76 55 -101 76
-108 37 -13 83 8 99 45 10 26 8 39 -16 100 -37 95 -92 174 -173 251 -114 107
-22 98 -964 98 -710 0 -827 -3 -853 -15z"/>
<path d="M2285 2705 c-116 -58 -254 -232 -296 -372 -7 -24 -13 -43 -14 -43 -2
0 -16 7 -31 15 -39 20 -400 21 -457 1 -55 -20 -103 -61 -134 -114 -24 -40 -28
-58 -28 -122 1 -156 84 -233 277 -260 61 -8 86 -16 81 -24 -3 -6 -19 -29 -33
-51 -55 -81 -60 -112 -60 -400 0 -242 2 -269 20 -319 12 -30 29 -65 40 -78 16
-21 19 -46 22 -189 3 -161 4 -167 31 -207 15 -23 46 -54 69 -69 l41 -28 263
-3 c177 -2 277 1 306 8 116 31 190 208 118 280 -44 44 -130 6 -130 -57 0 -16
-7 -39 -16 -51 -15 -22 -19 -22 -253 -22 -284 0 -271 -6 -271 116 l0 79 1310
0 1310 0 0 -81 c0 -119 13 -114 -273 -114 -232 0 -236 0 -251 22 -9 12 -16 35
-16 51 0 60 -76 97 -127 62 -51 -36 -33 -162 33 -228 65 -65 86 -69 385 -65
l266 3 41 28 c23 15 54 46 69 69 27 40 28 46 31 206 4 154 5 168 27 201 51 77
55 105 55 387 0 293 -4 316 -66 408 l-34 51 98 17 c108 17 162 40 203 85 49
52 64 92 64 173 0 64 -4 82 -28 122 -31 53 -79 94 -134 114 -57 20 -418 19
-457 -1 -16 -9 -30 -14 -31 -13 0 2 -14 36 -29 76 -48 124 -138 241 -242 313
l-49 34 -835 2 c-726 2 -839 1 -865 -12z m1719 -209 c73 -73 125 -170 155
-286 10 -41 21 -82 25 -90 7 -20 -66 -75 -134 -101 -48 -18 -86 -19 -910 -19
-824 0 -862 1 -910 19 -68 26 -141 81 -134 101 4 8 15 49 25 90 30 116 82 213
155 286 l64 64 800 0 800 0 64 -64z m-2105 -400 c75 -116 199 -208 326 -242
40 -11 224 -14 915 -14 691 0 875 3 915 14 127 34 251 126 326 242 l42 64 159
0 160 0 29 -29 c31 -31 36 -64 18 -104 -16 -36 -40 -45 -189 -67 -74 -12 -146
-28 -158 -36 -31 -20 -55 -79 -47 -113 3 -14 34 -66 68 -116 l62 -90 3 -257
c3 -243 2 -259 -18 -297 -11 -23 -39 -53 -62 -68 l-42 -28 -1266 0 -1266 0
-42 28 c-23 15 -51 45 -62 68 -20 38 -21 54 -18 297 l3 257 62 90 c34 50 65
102 68 116 8 34 -16 93 -47 113 -12 8 -84 24 -158 36 -149 22 -173 31 -189 67
-18 40 -13 73 18 104 l29 29 160 0 159 0 42 -64z"/>
<path d="M1862 1677 c-47 -50 -29 -89 109 -234 53 -57 62 -62 112 -68 29 -4
126 -5 214 -3 155 3 162 4 187 27 34 32 35 79 3 109 -22 21 -32 22 -204 22
l-182 0 -21 28 c-12 15 -46 53 -77 85 -64 66 -103 75 -141 34z"/>
<path d="M4277 1643 c-31 -32 -65 -70 -77 -85 l-21 -28 -183 0 c-178 0 -183
-1 -204 -23 -30 -32 -29 -77 4 -108 25 -23 32 -24 187 -27 88 -2 185 -1 214 3
50 6 59 11 112 68 105 110 131 146 131 181 0 41 -35 76 -77 76 -24 0 -42 -12
-86 -57z"/>
<path d="M2410 1210 c-21 -21 -26 -69 -10 -100 20 -38 52 -40 740 -40 688 0
720 2 740 40 16 31 11 79 -10 100 -20 20 -33 20 -730 20 -697 0 -710 0 -730
-20z"/>
<path d="M822 2357 c-47 -50 -29 -89 109 -234 54 -57 62 -62 115 -69 89 -11
172 0 200 27 32 30 32 78 1 107 -20 19 -35 22 -104 22 -77 0 -83 2 -103 28
-12 15 -46 53 -77 85 -64 66 -103 75 -141 34z"/>
</g>
</svg>
