<svg width="24" height="25" viewBox="0 0 24 25" fill="none" xmlns="http://www.w3.org/2000/svg">
<path fill-rule="evenodd" clip-rule="evenodd" d="M9.778 21.5296H14.222C17.343 21.5296 18.904 21.5296 20.025 20.7946C20.5088 20.4777 20.9254 20.0686 21.251 19.5906C22 18.4906 22 16.9576 22 13.8936C22 10.8296 22 9.29659 21.251 8.19659C20.9254 7.71858 20.5088 7.30945 20.025 6.99259C19.305 6.51959 18.403 6.35059 17.022 6.29059C16.363 6.29059 15.796 5.80059 15.667 5.16559C15.5684 4.70046 15.3123 4.28362 14.9418 3.98554C14.5714 3.68745 14.1095 3.5264 13.634 3.52959H10.366C9.378 3.52959 8.527 4.21459 8.333 5.16559C8.204 5.80059 7.637 6.29059 6.978 6.29059C5.598 6.35059 4.696 6.52059 3.975 6.99259C3.49154 7.30955 3.07527 7.71868 2.75 8.19659C2 9.29659 2 10.8286 2 13.8936C2 16.9586 2 18.4896 2.749 19.5906C3.073 20.0666 3.489 20.4756 3.975 20.7946C5.096 21.5296 6.657 21.5296 9.778 21.5296ZM12 9.80259C9.699 9.80259 7.833 11.6336 7.833 13.8926C7.833 16.1516 9.7 17.9856 12 17.9856C14.3 17.9856 16.167 16.1536 16.167 13.8946C16.167 11.6356 14.3 9.80259 12 9.80259ZM12 11.4386C10.62 11.4386 9.5 12.5376 9.5 13.8936C9.5 15.2486 10.62 16.3476 12 16.3476C13.38 16.3476 14.5 15.2486 14.5 13.8936C14.5 12.5386 13.38 11.4386 12 11.4386ZM16.722 10.6206C16.722 10.1686 17.095 9.80259 17.556 9.80259H18.666C19.126 9.80259 19.5 10.1686 19.5 10.6206C19.4979 10.8395 19.409 11.0486 19.2528 11.202C19.0966 11.3553 18.8859 11.4405 18.667 11.4386H17.556C17.4475 11.4396 17.3399 11.4193 17.2393 11.3788C17.1387 11.3382 17.047 11.2783 16.9696 11.2023C16.8921 11.1264 16.8304 11.0359 16.7879 10.9361C16.7454 10.8363 16.723 10.7291 16.722 10.6206Z" fill="#FBE5B6"/>
</svg>
