<?xml version="1.0" standalone="no"?>
<!DOCTYPE svg PUBLIC "-//W3C//DTD SVG 20010904//EN"
 "http://www.w3.org/TR/2001/REC-SVG-20010904/DTD/svg10.dtd">
<svg version="1.0" xmlns="http://www.w3.org/2000/svg"
 width="512.000000pt" height="512.000000pt" viewBox="0 0 512.000000 512.000000"
 preserveAspectRatio="xMidYMid meet">

<g transform="translate(0.000000,512.000000) scale(0.100000,-0.100000)"
fill="CurrentColor" stroke="none">
<path d="M2070 4880 l0 -80 495 0 495 0 0 80 0 80 -495 0 -495 0 0 -80z"/>
<path d="M1777 4633 c-4 -3 -7 -577 -7 -1275 l0 -1268 225 0 225 0 0 400 0
400 350 0 350 0 2 -397 3 -398 213 -3 212 -2 -2 1272 -3 1273 -781 3 c-429 1
-784 -1 -787 -5z m468 -323 l0 -75 -97 -3 -98 -3 0 74 c0 41 3 77 7 81 4 4 48
5 98 4 l90 -3 0 -75z m410 0 l0 -75 -95 0 -95 0 -3 64 c-4 94 -7 92 100 89
l93 -3 0 -75z m413 -3 l3 -78 -98 3 -98 3 -3 64 c-4 94 -7 92 100 89 l93 -3 3
-78z m-823 -367 l0 -75 -97 -3 -98 -3 0 81 0 81 98 -3 97 -3 0 -75z m410 0 l0
-75 -95 0 -95 0 -3 64 c-4 94 -7 92 100 89 l93 -3 0 -75z m415 0 l0 -81 -97 3
-98 3 -3 64 c-2 35 -1 70 2 77 4 11 30 14 101 14 l95 0 0 -80z m-825 -370 l0
-75 -95 0 -95 0 -3 78 -3 78 98 -3 98 -3 0 -75z m413 3 l-3 -78 -95 0 -95 0
-3 78 -3 77 101 0 101 0 -3 -77z m410 0 l-3 -78 -95 0 -95 0 -3 64 c-2 35 -1
70 2 77 4 11 30 14 101 14 l96 0 -3 -77z m-818 -367 c0 -86 0 -86 -100 -86
-100 0 -100 0 -100 86 l0 74 100 0 100 0 0 -74z m410 0 c0 -86 0 -86 -100 -86
-100 0 -100 0 -100 86 l0 74 100 0 100 0 0 -74z m410 0 c0 -86 0 -86 -100 -86
-100 0 -100 0 -100 86 l0 74 100 0 100 0 0 -74z"/>
<path d="M1022 3848 c-9 -9 -12 -116 -12 -420 l0 -408 43 0 c23 0 69 -7 100
-15 32 -8 62 -15 67 -15 5 0 10 19 12 43 l3 42 63 3 c87 4 92 -2 92 -105 l0
-85 54 -59 c104 -116 150 -235 150 -394 0 -115 -18 -188 -70 -283 l-34 -63 57
3 58 3 3 883 2 882 -288 0 c-211 0 -291 -3 -300 -12z m363 -458 l0 -95 -77 -3
-78 -3 0 101 0 101 78 -3 77 -3 0 -95z"/>
<path d="M3512 2978 l3 -883 58 -3 57 -3 -34 63 c-52 95 -70 168 -70 283 0
159 46 278 150 394 l54 59 0 85 c0 103 5 109 92 105 l63 -3 3 -42 c2 -24 7
-43 12 -43 5 0 35 7 67 15 31 8 77 15 100 15 l43 0 0 408 c0 304 -3 411 -12
420 -9 9 -89 12 -300 12 l-288 0 2 -882z m378 412 l0 -101 -77 3 -78 3 -3 84
c-2 46 -1 90 2 98 4 9 27 13 81 13 l75 0 0 -100z"/>
<path d="M875 2843 c-121 -44 -205 -118 -258 -231 -30 -63 -32 -74 -32 -178 0
-107 1 -112 38 -186 132 -269 478 -326 690 -114 58 58 103 147 119 236 31 177
-72 371 -242 453 -57 27 -77 31 -165 34 -77 3 -112 -1 -150 -14z"/>
<path d="M3971 2840 c-148 -54 -255 -183 -282 -339 -22 -126 25 -275 118 -367
215 -214 565 -152 696 123 30 64 32 75 32 178 0 103 -2 114 -32 177 -44 94
-109 160 -201 206 -70 34 -83 37 -176 39 -82 3 -111 0 -155 -17z"/>
<path d="M825 1883 c-294 -62 -544 -294 -634 -587 -26 -84 -26 -118 -3 -139
17 -16 88 -17 820 -17 956 0 863 -17 816 146 -87 304 -335 534 -644 599 -90
19 -263 18 -355 -2z"/>
<path d="M3940 1886 c-313 -70 -557 -296 -644 -600 -31 -106 -31 -101 -6 -126
20 -20 33 -20 823 -20 766 0 805 1 820 18 10 10 17 27 17 38 0 39 -31 140 -66
213 -114 243 -339 422 -596 475 -91 19 -268 20 -348 2z"/>
<path d="M2458 1870 c-65 -17 -151 -66 -201 -117 -171 -172 -167 -447 10 -614
165 -156 421 -156 586 0 221 209 164 567 -111 699 -63 30 -85 35 -160 38 -48
2 -104 -1 -124 -6z"/>
<path d="M2405 905 c-267 -50 -491 -222 -611 -468 -23 -48 -50 -121 -60 -162
-30 -127 -119 -115 826 -115 797 0 807 0 825 20 18 20 18 23 1 93 -9 39 -36
113 -60 162 -165 347 -546 541 -921 470z"/>
</g>
</svg>
