<?xml version="1.0" standalone="no"?>
<!DOCTYPE svg PUBLIC "-//W3C//DTD SVG 20010904//EN"
 "http://www.w3.org/TR/2001/REC-SVG-20010904/DTD/svg10.dtd">
<svg version="1.0" xmlns="http://www.w3.org/2000/svg"
 width="512.000000pt" height="465.000000pt" viewBox="0 0 512.000000 465.000000"
 preserveAspectRatio="xMidYMid meet">

<g transform="translate(0.000000,465.000000) scale(0.100000,-0.100000)"
fill="currentColor" stroke="none">
<path d="M840 4385 c-310 -87 -408 -474 -175 -694 214 -202 558 -125 667 149
31 78 30 213 -1 293 -27 68 -86 146 -142 187 -94 67 -241 95 -349 65z"/>
<path d="M3903 4361 c-108 -40 -186 -112 -237 -221 -29 -60 -31 -73 -31 -170
0 -98 2 -109 32 -170 154 -315 590 -317 745 -2 61 123 47 292 -33 408 -38 56
-101 109 -169 141 -75 37 -228 43 -307 14z"/>
<path d="M3670 3466 c-117 -33 -214 -106 -281 -209 -45 -70 -124 -309 -229
-691 -80 -289 -81 -307 -26 -362 34 -34 88 -51 131 -40 14 4 41 21 60 39 32
29 44 59 129 327 52 162 102 324 111 360 22 86 38 110 75 110 61 0 62 9 -99
-687 -192 -832 -176 -758 -163 -788 11 -23 15 -24 124 -27 l113 -3 5 -566 5
-566 29 -37 c33 -44 95 -76 146 -76 51 0 113 32 146 76 l29 37 5 566 5 566 58
3 57 3 0 -548 c0 -510 2 -551 19 -588 64 -143 263 -150 330 -13 21 44 21 54
21 596 l0 552 110 0 c158 0 153 -16 85 285 -30 132 -101 444 -159 694 -58 250
-106 464 -106 476 0 28 18 45 51 45 35 0 44 -13 64 -90 35 -139 257 -856 271
-878 29 -44 74 -63 136 -59 62 4 96 25 124 79 29 56 18 102 -166 683 -49 154
-98 314 -110 355 -60 206 -191 341 -368 379 -76 16 -672 13 -732 -3z"/>
<path d="M520 3434 c-95 -25 -161 -64 -236 -138 -78 -77 -117 -144 -138 -234
-7 -32 -31 -268 -52 -523 -37 -455 -37 -465 -20 -502 24 -50 68 -79 125 -84
60 -5 109 21 139 74 20 37 25 79 57 468 36 444 41 475 83 475 10 0 23 -5 30
-12 9 -9 12 -306 12 -1276 0 -934 3 -1275 12 -1304 17 -57 84 -115 142 -123
89 -14 181 46 205 132 7 25 11 283 11 746 l0 708 58 -3 57 -3 5 -735 c4 -555
8 -740 17 -756 19 -33 68 -71 109 -84 80 -27 175 15 213 92 l21 44 0 1268 c0
854 3 1274 10 1287 6 10 19 19 29 19 41 0 52 -34 117 -357 35 -175 69 -332 74
-349 16 -47 71 -95 118 -101 55 -7 85 2 127 38 65 57 65 61 -24 489 -71 339
-84 392 -120 467 -72 149 -202 256 -345 282 -95 17 -767 13 -836 -5z"/>
<path d="M2378 2575 c-149 -56 -245 -218 -219 -367 21 -118 81 -202 183 -254
76 -39 190 -45 273 -13 81 30 164 112 193 192 45 120 21 252 -65 347 -69 77
-128 103 -238 107 -61 2 -102 -2 -127 -12z"/>
<path d="M1808 2113 c-69 -43 -75 -127 -15 -229 73 -124 180 -216 302 -260
l60 -22 5 -630 c5 -618 5 -631 26 -659 47 -65 139 -80 204 -33 58 41 60 55 60
425 l0 335 45 0 45 0 0 -335 c0 -370 2 -384 60 -425 68 -48 161 -31 207 39
l23 34 0 624 c0 585 1 624 18 629 56 19 154 71 200 105 87 66 192 224 192 289
0 74 -57 130 -133 130 -44 0 -53 -4 -86 -38 -20 -21 -52 -60 -71 -87 -45 -64
-119 -119 -195 -146 -75 -27 -334 -38 -442 -19 -134 23 -233 89 -307 204 -19
30 -49 62 -65 71 -39 20 -99 19 -133 -2z"/>
</g>
</svg>
