<svg width="33" height="32" viewBox="0 0 33 32" fill="none" xmlns="http://www.w3.org/2000/svg">
<path fill-rule="evenodd" clip-rule="evenodd" d="M16.4987 4.33268C13.9213 4.33268 11.832 6.42203 11.832 8.99935V11.002H21.1653V8.99935C21.1653 6.42203 19.076 4.33268 16.4987 4.33268ZM9.16536 8.99935V11.002H8.4987C6.47352 11.002 4.83184 12.6438 4.83203 14.6689L4.83314 26.6689C4.83332 28.6939 6.4749 30.3353 8.4998 30.3353H24.4984C26.5235 30.3353 28.1651 28.6937 28.1651 26.6687V14.6687C28.1651 12.6436 26.5235 11.002 24.4984 11.002H23.832V8.99935C23.832 4.94927 20.5488 1.66602 16.4987 1.66602C12.4486 1.66602 9.16536 4.94927 9.16536 8.99935ZM23.1653 20.6556C23.1653 19.9192 22.5684 19.3223 21.832 19.3223C21.0956 19.3223 20.4987 19.9192 20.4987 20.6556V20.6689C20.4987 21.4053 21.0956 22.0023 21.832 22.0023C22.5684 22.0023 23.1653 21.4053 23.1653 20.6689V20.6556ZM16.4987 19.3223C17.2351 19.3223 17.832 19.9192 17.832 20.6556V20.6689C17.832 21.4053 17.2351 22.0023 16.4987 22.0023C15.7623 22.0023 15.1653 21.4053 15.1653 20.6689V20.6556C15.1653 19.9192 15.7623 19.3223 16.4987 19.3223ZM12.4987 20.6556C12.4987 19.9192 11.9018 19.3223 11.1654 19.3223C10.429 19.3223 9.83203 19.9192 9.83203 20.6556V20.6689C9.83203 21.4053 10.429 22.0023 11.1654 22.0023C11.9018 22.0023 12.4987 21.4053 12.4987 20.6689V20.6556Z" fill="currentColor"/>
</svg>
