<svg width="24" height="25" viewBox="0 0 24 25" fill="none" xmlns="http://www.w3.org/2000/svg">
<path fill-rule="evenodd" clip-rule="evenodd" d="M11.4 20.7648C16.2114 20.7648 20 17.1232 20 12.7648C20 8.40628 16.2114 4.76478 11.4 4.76478C10.9699 4.76478 10.5478 4.79408 10.1357 4.85058C9.5885 4.92548 9.0842 4.54268 9.0093 3.99548C8.9343 3.44828 9.3171 2.94398 9.8643 2.86908C10.3662 2.80028 10.879 2.76478 11.4 2.76478C17.1924 2.76478 22 7.18208 22 12.7648C22 18.3474 17.1924 22.7648 11.4 22.7648C10.879 22.7648 10.3662 22.7292 9.8643 22.6605C9.3171 22.5855 8.9343 22.0812 9.0093 21.534C9.0842 20.9869 9.5885 20.6041 10.1357 20.679C10.5478 20.7355 10.9699 20.7648 11.4 20.7648Z" fill="#FFE27C"/>
<path fill-rule="evenodd" clip-rule="evenodd" d="M10.1173 16.1886C9.7436 16.0338 9.5 15.6692 9.5 15.2647L9.5 13.7648L3 13.7648C2.4477 13.7648 2 13.317 2 12.7648C2 12.2125 2.4477 11.7648 3 11.7648L9.5 11.7648L9.5 10.2648C9.5 9.86028 9.7436 9.49568 10.1173 9.34088C10.491 9.18608 10.9211 9.27168 11.2071 9.55768L13.7071 12.0577C14.0976 12.4482 14.0976 13.0813 13.7071 13.4719L11.2071 15.9719C10.9211 16.2579 10.491 16.3434 10.1173 16.1886Z" fill="#FFE27C"/>
</svg>
