<svg width="24" height="24" viewBox="0 0 24 24" fill="none" xmlns="http://www.w3.org/2000/svg">
<path fill-rule="evenodd" clip-rule="evenodd" d="M11.15 4C15.9614 4 19.75 7.64154 19.75 12C19.75 16.3585 15.9614 20 11.15 20C10.7199 20 10.2978 19.9707 9.8857 19.9142C9.3385 19.8393 8.8342 20.2221 8.7593 20.7693C8.6843 21.3164 9.0671 21.8208 9.6143 21.8957C10.1162 21.9645 10.629 22 11.15 22C16.9424 22 21.75 17.5827 21.75 12C21.75 6.41734 16.9424 2 11.15 2C10.629 2 10.1162 2.03552 9.6143 2.10427C9.0671 2.17922 8.6843 2.68355 8.7593 3.23073C8.8342 3.7779 9.3385 4.16072 9.8857 4.08576C10.2978 4.02931 10.7199 4 11.15 4Z" fill="#1A1A1A"/>
<path d="M13.25 13.0059C13.8023 13.0059 14.25 12.5581 14.25 12.0059C14.25 11.4536 13.8023 11.0059 13.25 11.0059H6.75V10.4116C6.7501 10.236 6.7503 10.0203 6.7282 9.84387L6.7278 9.84053C6.712 9.71408 6.6402 9.13804 6.0746 8.86368C5.5077 8.58872 5.0076 8.89065 4.8994 8.95597L4.4309 9.29511C4.0551 9.58975 3.5406 9.99545 3.1496 10.3759C2.9545 10.5657 2.7533 10.783 2.5944 11.0139C2.4532 11.2191 2.25 11.5693 2.25 12C2.25 12.4307 2.4532 12.7809 2.5944 12.9861C2.7533 13.217 2.9545 13.4343 3.1496 13.6241C3.5406 14.0046 4.0551 14.4102 4.4309 14.7049L4.8994 15.044C5.0076 15.1093 5.5078 15.4113 6.0746 15.1363C6.6402 14.862 6.712 14.2859 6.7278 14.1595L6.7282 14.1561C6.7503 13.9797 6.7501 13.764 6.75 13.5884V13.0059H13.25Z" fill="#1A1A1A"/>
</svg>
