<svg width="33" height="24" viewBox="0 0 33 24" fill="none" xmlns="http://www.w3.org/2000/svg">
<path d="M32.5 0.117676H0.5V23.8824H32.5V0.117676Z" fill="white"/>
<path d="M31.5971 0.826172H1.3418V23.173H31.5971V0.826172Z" fill="#ED1E24"/>
<path d="M8.76418 11.5347C8.58358 11.461 8.43262 11.463 8.26305 11.4651C8.09141 11.4672 7.83292 11.4899 7.52824 11.594C7.51514 11.381 7.50136 11.168 7.48826 10.9543C7.55237 10.924 7.62819 10.893 7.71504 10.8675C7.84119 10.8302 7.95561 10.8137 8.04867 10.8068C8.21204 10.7758 8.44158 10.7448 8.71593 10.7461C9.20327 10.7489 9.74576 10.7517 10.1297 11.1011C10.6046 11.534 10.5571 12.244 10.5447 12.3874V14.2809H9.41007L9.45074 13.5413C9.39076 13.6592 9.23567 13.9246 8.91927 14.1189C8.85379 14.1589 8.5367 14.3464 8.09003 14.3299C7.97491 14.3257 7.30628 14.3002 7.0147 13.806C6.88097 13.5799 6.87891 13.3421 6.87891 13.2814C6.87891 12.2247 8.2465 12.1344 9.39421 12.3385C9.3887 12.2936 9.337 11.7677 8.76487 11.534L8.76418 11.5347ZM8.63803 13.6213C8.77038 13.6213 8.87585 13.5861 8.95994 13.5572C9.19431 13.4758 9.3563 13.3448 9.44729 13.258V12.5921C9.15846 12.5921 8.78899 12.6693 8.49121 12.7893C8.29062 12.8699 7.95837 13.0422 7.96802 13.2421C7.97767 13.4462 8.34508 13.6213 8.63803 13.622V13.6213Z" fill="white"/>
<path d="M21.2603 11.5331C21.1072 11.4704 20.9315 11.469 20.7591 11.4635C20.4407 11.4538 20.1787 11.5007 20.0002 11.5448C19.9499 11.4787 19.9003 11.4125 19.8499 11.3463C19.9616 11.2133 20.1801 10.992 20.522 10.8576C20.5868 10.8321 20.8115 10.7487 21.212 10.7452C21.7118 10.7411 22.2419 10.7308 22.6258 11.1002C22.9408 11.4042 23.0408 11.8681 23.0408 12.3865V14.28H21.9062L21.9468 13.5404C21.8869 13.6583 21.7318 13.9237 21.4154 14.118C21.3499 14.158 21.0328 14.3455 20.5861 14.329C20.471 14.3248 19.8024 14.2993 19.5108 13.8051C19.3771 13.579 19.375 13.3412 19.375 13.2805C19.375 12.2238 20.7426 12.1335 21.8903 12.3375C21.8848 12.2927 21.8331 11.7668 21.261 11.5331H21.2603ZM21.1341 13.6197C21.2665 13.6197 21.3719 13.5845 21.456 13.5556C21.6904 13.4742 21.8524 13.3433 21.9434 13.2564V12.5905C21.6546 12.5905 21.2851 12.6677 20.9873 12.7877C20.7867 12.8683 20.4545 13.0406 20.4641 13.2405C20.4738 13.4446 20.8412 13.6197 21.1341 13.6204V13.6197Z" fill="white"/>
<path d="M14.7844 12.5251C14.7562 13.3343 14.1654 14.2883 13.2969 14.3297C12.509 14.3669 11.9741 13.6307 11.9217 13.557C11.9252 14.2614 11.9279 14.9659 11.9314 15.6704H10.834V10.8259H11.8666C11.8755 11.0658 11.8845 11.3057 11.8941 11.5455C11.9693 11.4256 12.1106 11.2326 12.3484 11.0672C12.4939 10.9665 12.7696 10.81 13.1404 10.7818C13.7008 10.739 14.1062 11.0168 14.2213 11.1009C14.3502 11.2402 14.8113 11.773 14.7844 12.5244V12.5251ZM13.6877 12.4354C13.6877 11.7041 13.1921 11.5331 12.802 11.5331C12.3794 11.5331 11.9321 11.8178 11.9321 12.2486V12.7932C11.9321 13.2157 12.3546 13.5411 12.875 13.5411C13.2976 13.5411 13.6877 13.1675 13.6877 12.5251V12.4354Z" fill="white"/>
<path d="M16.2497 9.354H15.1523V10.2563H16.2497V9.354Z" fill="white"/>
<path d="M16.2497 10.6548H15.1523V14.1089H16.2497V10.6548Z" fill="white"/>
<path d="M17.163 12.8057V11.6442H16.5137V10.8267H17.163V10.4958C17.163 10.0912 17.4353 9.73691 17.8268 9.63351L18.0501 9.57423C18.1522 9.54735 18.2528 9.62455 18.2528 9.73002V10.8267H19.1103V11.6442H18.2528V12.9022C18.2528 13.2469 18.4369 13.4551 18.8615 13.4551C18.9097 13.4551 19.0297 13.4475 19.1096 13.4392V14.2002C18.8932 14.2485 18.5409 14.2726 18.3404 14.2802C17.4911 14.2802 17.1623 13.7756 17.1623 12.8057H17.163Z" fill="white"/>
<path d="M23.7188 8.77539H24.8161V14.292H23.7188V8.77539Z" fill="white"/>
<path d="M26.9321 14.3091H25.623V8.66846H26.9321V11.0983H29.2688V8.66846H30.5771V14.3091H29.2688V12.1012H26.9321V14.3091Z" fill="white"/>
<path d="M5.31998 13.5253C4.33632 13.5253 3.6739 12.8167 3.6739 11.7489C3.6739 10.6812 4.33632 9.93672 5.31998 9.93672C5.57985 9.93672 5.81421 9.96705 6.01411 10.027C6.31534 10.118 6.62209 9.90846 6.62209 9.59413V9.57483C6.62209 9.3577 6.46906 9.17296 6.25675 9.12609C5.9762 9.06405 5.66463 9.03027 5.31998 9.03027C3.10935 9.03027 2.35938 10.5013 2.35938 11.7124V11.7482C2.35938 12.9594 3.10935 14.4304 5.31998 14.4304C5.66394 14.4304 5.9762 14.3966 6.25675 14.3345C6.46906 14.2877 6.62209 14.1029 6.62209 13.8858V13.8665C6.62209 13.5522 6.31534 13.3426 6.01411 13.4336C5.8149 13.4936 5.58054 13.5239 5.31998 13.5239V13.5253Z" fill="white"/>
<path d="M17.2466 16.9619H15.6895V23.165H17.2466V16.9619Z" fill="white"/>
<path d="M17.2466 0.834473H15.6895V7.03761H17.2466V0.834473Z" fill="white"/>
</svg>
