<svg width="26" height="27" viewBox="0 0 26 27" fill="none" xmlns="http://www.w3.org/2000/svg">
<path d="M19.1051 17.5515C13.2179 17.5515 9.45257 13.8627 9.45257 7.96488C9.45257 6.74613 9.74646 5.00506 10.1276 4.10202C10.2363 3.85131 10.247 3.69902 10.247 3.59038C10.247 3.29649 10.0297 2.97009 9.616 2.97009C9.48553 2.97009 9.23528 3.00259 8.99571 3.08988C4.96942 4.70049 2.271 9.03134 2.271 13.5906C2.271 19.989 7.146 24.5594 13.5225 24.5594C18.2016 24.5594 22.2715 21.7193 23.6207 18.1717C23.687 17.9752 23.7236 17.7699 23.7294 17.5626C23.7294 17.1601 23.403 16.888 23.0979 16.888C22.9568 16.888 22.837 16.9205 22.6304 16.9855C21.7928 17.2576 20.4436 17.5519 19.1051 17.5519" fill="#E0E0E0"/>
</svg>
