<svg width="16" height="16" viewBox="0 0 16 16" fill="none" xmlns="http://www.w3.org/2000/svg">
<path d="M10.4712 3.52858L11.6664 2.33332C11.9268 2.07297 12.3489 2.07297 12.6092 2.33332L13.6664 3.39051C13.9268 3.65086 13.9268 4.07297 13.6664 4.33332L12.4712 5.52858M10.4712 3.52858L6.399 7.60079C6.22812 7.77165 6.1069 7.98579 6.04828 8.22019L5.47119 10.5286L7.77956 9.95146C8.01402 9.89286 8.22809 9.77166 8.39902 9.60079L12.4712 5.52858M10.4712 3.52858L12.4712 5.52858" stroke="currentColor" stroke-width="1.5" stroke-linejoin="round"/>
<path d="M7.13815 3.19531H3.47152C2.73514 3.19531 2.13818 3.79227 2.13818 4.52865V12.5287C2.13818 13.2651 2.73514 13.862 3.47152 13.862H11.4715C12.2079 13.862 12.8048 13.2651 12.8048 12.5287V8.86199" stroke="currentColor" stroke-width="1.5" stroke-linecap="round" stroke-linejoin="round"/>
</svg>
