<svg width="168" height="150" viewBox="0 0 168 150" fill="none" xmlns="http://www.w3.org/2000/svg">
<path d="M160.104 92.9556H64.127C58.3831 92.9556 54.8596 86.6618 57.8622 81.7652L105.851 3.50719C108.718 -1.16906 115.513 -1.16906 118.38 3.50719L166.368 81.7652C169.371 86.6618 165.848 92.9556 160.104 92.9556Z" fill="#FF7145"/>
<path d="M112.116 78.416C116.207 78.416 119.524 75.0993 119.524 71.008C119.524 66.9167 116.207 63.6001 112.116 63.6001C108.025 63.6001 104.708 66.9167 104.708 71.008C104.708 75.0993 108.025 78.416 112.116 78.416Z" fill="white"/>
<path d="M116.624 22.3242H107.608C106.341 22.3242 105.349 23.4118 105.464 24.6727L108.461 57.4277C108.562 58.5358 109.491 59.3841 110.604 59.3841H113.628C114.741 59.3841 115.67 58.5359 115.771 57.4277L118.768 24.6727C118.883 23.4118 117.891 22.3242 116.624 22.3242Z" fill="white"/>
<path d="M33.4183 124.283L13.3543 147.323C11.6286 149.304 8.67992 149.653 6.5414 148.126C5.69313 147.521 4.76548 146.758 3.81009 145.802C2.85398 144.846 2.09117 143.919 1.48497 143.071C-0.0414598 140.931 0.307725 137.984 2.28828 136.258L25.3294 116.194L33.4183 124.283Z" fill="#265060"/>
<path d="M65.0279 115.859C82.3006 115.859 96.3028 101.857 96.3028 84.584C96.3028 67.3114 82.3006 53.3091 65.0279 53.3091C47.7552 53.3091 33.7529 67.3114 33.7529 84.584C33.7529 101.857 47.7552 115.859 65.0279 115.859Z" fill="#E9FDFF"/>
<path d="M40.3714 105L32.7344 112.637L36.9733 116.876L44.6103 109.239L40.3714 105Z" fill="#ACBBBF"/>
<path d="M38.9336 118.025L35.3226 122.172L27.4404 114.29L31.588 110.678C32.3343 110.029 33.4568 110.068 34.1567 110.768L38.8445 115.456C39.5444 116.156 39.5841 117.278 38.9336 118.025Z" fill="#C1D6D5"/>
<path d="M96.3033 84.5841C96.3033 87.4833 95.9091 90.2909 95.1704 92.9553H64.1271C58.3832 92.9553 54.8596 86.6613 57.8621 81.7647L74.4296 54.7471C87.1083 58.7383 96.3033 70.5868 96.3033 84.5841Z" fill="#EDB294"/>
<path d="M97.3425 71.4648C95.5876 67.1374 93.0107 63.2566 89.6829 59.9289C86.3559 56.6011 82.4744 54.0242 78.1471 52.27C73.9695 50.5757 69.5553 49.7163 65.0278 49.7163C60.5011 49.7163 56.0869 50.5758 51.9086 52.27C47.582 54.0242 43.7004 56.6011 40.3727 59.9289C37.0457 63.2567 34.4687 67.1374 32.7138 71.4648C31.0196 75.643 30.1602 80.0565 30.1602 84.584C30.1602 89.1114 31.0197 93.525 32.7138 97.7032C34.4687 102.031 37.0457 105.912 40.3727 109.239C43.7004 112.567 47.582 115.144 51.9086 116.899C56.0869 118.593 60.5011 119.452 65.0278 119.452C69.5553 119.452 73.9695 118.593 78.1471 116.899C82.4744 115.144 86.3559 112.567 89.6829 109.239C93.0107 105.912 95.5876 102.031 97.3425 97.7032C99.0368 93.525 99.8955 89.1114 99.8955 84.584C99.8955 80.0565 99.0368 75.643 97.3425 71.4648ZM85.4447 105C79.991 110.454 72.7405 113.457 65.0277 113.457C57.3157 113.457 50.0652 110.454 44.6115 105C39.1579 99.5474 36.1546 92.2961 36.1546 84.584C36.1546 76.8719 39.1579 69.6214 44.6115 64.1678C50.0652 58.7141 57.3157 55.7108 65.0277 55.7108C72.7406 55.7108 79.9911 58.7141 85.4447 64.1678C90.8975 69.6214 93.9008 76.8719 93.9008 84.584C93.9009 92.2961 90.8976 99.5474 85.4447 105Z" fill="#2C5A68"/>
<path d="M65.0275 114.816C56.9521 114.816 49.36 111.671 43.6498 105.961C37.9397 100.251 34.7949 92.6591 34.7949 84.5836C34.7949 76.5082 37.9397 68.9162 43.6498 63.206C49.36 57.4958 56.952 54.3511 65.0275 54.3511C73.103 54.3511 80.695 57.4958 86.4052 63.206C92.1153 68.9162 95.2601 76.5083 95.2601 84.5836C95.2601 92.659 92.1153 100.251 86.4052 105.961C80.695 111.671 73.1029 114.816 65.0275 114.816ZM65.0275 57.0699C57.6783 57.0699 50.769 59.9318 45.5724 65.1284C40.3756 70.325 37.5137 77.2344 37.5137 84.5835C37.5137 91.9327 40.3756 98.8421 45.5724 104.039C50.769 109.235 57.6783 112.097 65.0275 112.097C72.3767 112.097 79.286 109.235 84.4827 104.039C89.6794 98.8421 92.5412 91.9327 92.5412 84.5835C92.5412 77.2343 89.6794 70.325 84.4827 65.1284C79.286 59.9319 72.3767 57.0699 65.0275 57.0699Z" fill="#224356"/>
</svg>
