<?xml version="1.0" standalone="no"?>
<!DOCTYPE svg PUBLIC "-//W3C//DTD SVG 20010904//EN"
 "http://www.w3.org/TR/2001/REC-SVG-20010904/DTD/svg10.dtd">
<svg version="1.0" xmlns="http://www.w3.org/2000/svg"
 width="512.000000pt" height="512.000000pt" viewBox="0 0 512.000000 512.000000"
 preserveAspectRatio="xMidYMid meet">

<g transform="translate(0.000000,512.000000) scale(0.100000,-0.100000)"
fill="currentColor" stroke="none">
<path d="M2431 5098 c-79 -27 -160 -98 -195 -171 -22 -43 -206 -703 -206 -735
0 -7 140 -12 438 -14 l437 -3 59 -29 c33 -16 75 -44 95 -62 30 -27 62 -39 186
-73 l150 -40 55 53 c30 29 159 150 287 269 l232 216 68 -20 c37 -10 72 -19 77
-19 17 0 -5 -41 -172 -315 -94 -154 -169 -281 -168 -283 6 -5 257 -72 272 -72
9 0 62 27 120 61 l104 61 50 -12 c28 -7 50 -16 50 -21 0 -5 -36 -64 -81 -130
l-80 -120 10 -152 c5 -84 8 -153 7 -154 -1 -1 -25 5 -54 13 -51 15 -52 16
-114 125 -54 94 -67 110 -95 118 -127 35 -244 63 -248 60 -2 -3 0 -155 4 -339
5 -184 7 -337 4 -340 -2 -2 -38 5 -81 15 l-76 20 -115 377 -115 377 -80 20
c-44 11 -82 19 -83 17 -2 -2 -2 -470 -1 -1042 l3 -1039 85 323 c46 177 87 328
91 334 5 8 27 6 78 -7 39 -11 75 -21 80 -25 5 -3 -68 -295 -162 -650 l-171
-645 -5 -220 c-6 -214 -7 -222 -34 -280 -36 -78 -95 -137 -171 -172 l-61 -28
-335 -5 c-184 -3 -331 -7 -327 -8 968 -264 1215 -326 1292 -327 68 0 89 5 140
29 68 34 134 97 164 159 14 30 591 2150 591 2173 0 1 -38 12 -84 24 l-83 22
19 77 c11 42 23 79 26 83 4 4 43 -2 86 -13 43 -11 80 -19 81 -17 6 6 425 1576
435 1629 12 63 -2 153 -32 212 -29 57 -96 125 -149 152 -67 34 -2088 575
-2169 581 -50 3 -80 -1 -129 -18z m951 -2269 c43 -12 78 -25 78 -30 0 -12 -39
-151 -43 -156 -9 -8 -168 41 -164 51 2 6 12 44 22 84 11 39 21 72 24 72 2 0
40 -9 83 -21z m335 -90 c43 -12 79 -22 81 -24 3 -2 -38 -158 -43 -163 -5 -5
-165 40 -165 46 0 12 42 162 46 162 2 0 39 -10 81 -21z m356 -95 c53 -13 67
-20 62 -32 -3 -8 -13 -45 -22 -81 -9 -36 -17 -67 -18 -69 -2 -2 -23 2 -46 8
-24 6 -61 16 -82 21 -37 10 -39 12 -33 44 4 18 13 57 22 85 12 40 19 50 32 46
9 -3 48 -13 85 -22z m-53 -449 c0 -13 -488 -1836 -493 -1841 -3 -3 -159 35
-164 40 -3 2 482 1817 491 1843 6 15 166 -25 166 -42z"/>
<path d="M205 3998 c-3 -7 -4 -794 -3 -1748 l3 -1735 1330 0 1330 0 41 24 c24
13 52 41 65 65 l24 41 3 1593 c1 1079 -1 1606 -8 1633 -13 46 -51 93 -94 117
-29 16 -127 17 -1359 20 -1067 2 -1328 0 -1332 -10z m1530 -354 c214 -19 445
-135 612 -307 401 -411 398 -1061 -8 -1466 -133 -133 -299 -228 -484 -277 -88
-24 -119 -27 -255 -27 -135 0 -168 4 -254 26 -307 82 -543 273 -681 552 -64
130 -90 220 -106 362 -20 191 19 400 107 576 100 196 298 387 498 477 135 62
344 104 461 94 22 -2 72 -6 110 -10z m735 -2694 l0 -90 -870 0 -870 0 0 90 0
90 870 0 870 0 0 -90z"/>
<path d="M1549 3438 c-52 -87 -117 -245 -144 -349 -9 -32 -18 -65 -21 -74 -5
-13 21 -15 216 -15 195 0 221 2 216 15 -3 9 -12 42 -21 74 -23 88 -61 186
-117 294 -44 86 -53 97 -77 97 -20 0 -32 -10 -52 -42z"/>
<path d="M1269 3411 c-160 -67 -296 -180 -393 -325 -25 -39 -46 -73 -46 -78 0
-5 84 -7 187 -6 l186 3 14 60 c18 80 59 203 99 298 18 42 30 77 26 76 -4 0
-37 -13 -73 -28z"/>
<path d="M1850 3435 c0 -3 11 -27 24 -53 34 -68 75 -184 100 -287 l23 -90 188
-3 c213 -3 201 -10 138 86 -73 110 -208 232 -321 291 -37 19 -152 61 -152 56z"/>
<path d="M749 2793 c-18 -61 -22 -259 -7 -333 l14 -65 210 -3 209 -2 -7 97
c-4 54 -4 153 -1 221 l6 122 -206 0 -206 0 -12 -37z"/>
<path d="M1346 2778 c-8 -68 -8 -268 0 -335 l7 -53 247 0 247 0 7 61 c3 34 6
106 6 159 0 53 -3 125 -6 159 l-7 61 -247 0 -247 0 -7 -52z"/>
<path d="M2029 2826 c-2 -2 -1 -49 2 -103 6 -93 3 -245 -6 -305 l-4 -28 209 0
209 0 11 38 c26 89 23 283 -6 385 -5 15 -24 17 -208 17 -111 0 -205 -2 -207
-4z"/>
<path d="M830 2215 c0 -3 7 -20 17 -38 46 -89 167 -220 260 -283 52 -34 177
-96 220 -109 22 -6 22 -5 -6 57 -38 84 -68 174 -96 283 l-23 90 -186 3 c-102
1 -186 0 -186 -3z"/>
<path d="M1387 2213 c-6 -11 45 -182 81 -269 16 -39 45 -101 66 -137 32 -58
41 -67 66 -67 24 0 33 9 63 63 65 116 166 395 149 412 -8 8 -420 6 -425 -2z"/>
<path d="M1997 2213 c-3 -5 -10 -35 -17 -68 -14 -67 -68 -226 -105 -311 l-24
-55 22 6 c42 13 167 74 214 106 79 54 183 159 234 238 27 40 49 77 49 82 0 11
-367 12 -373 2z"/>
</g>
</svg>
