<svg width="16" height="16" viewBox="0 0 16 16" fill="none" xmlns="http://www.w3.org/2000/svg">
<path d="M6.0714 3.63204C6.47007 2.46537 8.08207 2.43004 8.55474 3.52604L8.59474 3.63271L9.13274 5.20604C9.25603 5.56686 9.45527 5.89705 9.71702 6.17432C9.97877 6.4516 10.2969 6.66952 10.6501 6.81337L10.7947 6.86737L12.3681 7.40471C13.5347 7.80337 13.5701 9.41537 12.4747 9.88804L12.3681 9.92804L10.7947 10.466C10.4338 10.5893 10.1035 10.7885 9.82608 11.0502C9.54869 11.312 9.33067 11.6302 9.18674 11.9834L9.13274 12.1274L8.5954 13.7014C8.19674 14.868 6.58474 14.9034 6.11274 13.808L6.0714 13.7014L5.53407 12.128C5.41086 11.7671 5.21165 11.4368 4.9499 11.1594C4.68814 10.882 4.36993 10.664 4.01674 10.52L3.87274 10.466L2.2994 9.92871C1.13207 9.53004 1.09674 7.91804 2.19274 7.44604L2.2994 7.40471L3.87274 6.86737C4.23356 6.74408 4.56374 6.54484 4.84102 6.28309C5.11829 6.02134 5.33621 5.70317 5.48007 5.35004L5.53407 5.20604L6.0714 3.63204ZM12.6667 1.33337C12.7915 1.33337 12.9137 1.36836 13.0195 1.43436C13.1253 1.50035 13.2105 1.59471 13.2654 1.70671L13.2974 1.78471L13.5307 2.46871L14.2154 2.70204C14.3404 2.7445 14.45 2.82312 14.5302 2.92792C14.6105 3.03272 14.6578 3.15899 14.6663 3.29072C14.6747 3.42246 14.6438 3.55373 14.5775 3.6679C14.5113 3.78207 14.4126 3.874 14.2941 3.93204L14.2154 3.96404L13.5314 4.19737L13.2981 4.88204C13.2555 5.00699 13.1769 5.11651 13.072 5.1967C12.9672 5.2769 12.8409 5.32417 12.7092 5.33252C12.5774 5.34088 12.4462 5.30994 12.3321 5.24363C12.2179 5.17732 12.1261 5.07862 12.0681 4.96004L12.0361 4.88204L11.8027 4.19804L11.1181 3.96471C10.9931 3.92224 10.8835 3.84363 10.8033 3.73883C10.723 3.63403 10.6756 3.50776 10.6672 3.37603C10.6588 3.24429 10.6897 3.11302 10.7559 2.99885C10.8222 2.88468 10.9208 2.79275 11.0394 2.73471L11.1181 2.70271L11.8021 2.46937L12.0354 1.78471C12.0804 1.65299 12.1654 1.53865 12.2786 1.45771C12.3918 1.37677 12.5276 1.33329 12.6667 1.33337Z" fill="CurrentColor"/>
</svg>
