<svg width="32" height="32" viewBox="0 0 32 32" fill="none" xmlns="http://www.w3.org/2000/svg">
<path fill-rule="evenodd" clip-rule="evenodd" d="M19.7476 27.1243C19.8722 27.0425 20.0099 27 20.1542 27C20.5476 27 21.0003 27.3708 21.0003 28C21.0003 28.6292 20.5476 29 20.1542 29C20.0635 29 19.9775 28.9833 19.8964 28.9523L19.1812 30.8201C19.4851 30.9364 19.8134 31 20.1542 31C21.7999 31 23.0003 29.58 23.0003 28C23.0003 26.42 21.7999 25 20.1542 25C19.5798 25 19.047 25.1801 18.605 25.4825C18.5938 25.4901 18.5827 25.4981 18.5718 25.5063C17.2692 26.4779 14.8104 27.7483 12.0371 28.0749L12.2711 30.0612C15.4432 29.6876 18.216 28.2612 19.7476 27.1243ZM6.44987 27.1705C7.18071 27.5383 7.92409 27.7897 8.66785 27.9463L8.25585 29.9033C7.35102 29.7129 6.44306 29.4061 5.55078 28.9571L6.44987 27.1705Z" fill="currentColor"/>
<path fill-rule="evenodd" clip-rule="evenodd" d="M26 29.666V27.666H28.6667V29.666H26Z" fill="currentColor"/>
<path d="M2.33203 17.9993C2.33203 14.2887 4.96755 11.1946 8.46936 10.4854C9.18178 6.60543 12.5798 3.66602 16.6654 3.66602C21.1798 3.66602 24.8558 7.25567 24.9946 11.7363C28.389 12.2198 30.9987 15.1381 30.9987 18.666C30.9987 22.3889 28.0924 25.4331 24.4248 25.6532C23.6464 24.1377 22.1238 22.9993 20.1523 22.9993C19.7978 22.9993 19.4528 23.0389 19.1216 23.1131C19.3598 22.8528 19.5822 22.5801 19.787 22.2953C19.8048 22.2705 19.8215 22.2448 19.837 22.2185C21.2742 19.7753 19.3507 16.778 16.6651 16.778C14.6559 16.778 12.9984 18.384 12.9984 20.4003H14.9984C14.9984 19.52 15.7288 18.778 16.6651 18.778C17.8962 18.778 18.6935 20.1527 18.1336 21.1683C16.4503 23.4724 13.1032 24.9116 9.81428 24.8652C7.08998 24.8267 4.60154 23.7823 3.20642 21.5584C2.64798 20.4948 2.33203 19.284 2.33203 17.9993Z" fill="currentColor"/>
<path fill-rule="evenodd" clip-rule="evenodd" d="M7.60717 2.46815C6.76645 2.64075 5.98436 2.97335 5.29319 3.43265L4.27244 2.40427L2.3798 4.28283L3.41215 5.32291C2.95108 6.02323 2.61807 6.81588 2.44623 7.66667H1V10.3333H2.44624C2.73821 11.779 3.49537 13.0559 4.55297 13.9964L6.32499 12.0036C5.49987 11.2699 4.98017 10.1981 4.98017 9C4.98017 6.78147 6.76264 5 8.94051 5C10.156 5 11.2449 5.55165 11.9749 6.42933L14.0252 4.7242C13.0837 3.59219 11.7712 2.7764 10.2738 2.46845V1H7.60717V2.46815Z" fill="currentColor"/>
</svg>
