<svg width="33" height="32" viewBox="0 0 33 32" fill="none" xmlns="http://www.w3.org/2000/svg">
<path d="M7.16667 13.3333H10.5L19.1667 22V25.3333C19.1667 26.8061 20.3605 28 21.8333 28H24.8676C25.224 28 25.4025 27.5692 25.1505 27.3172L23.1667 25.3333V22.6667H25.8333L27.8172 24.6505C28.0692 24.9025 28.5 24.724 28.5 24.3676V21.3333C28.5 19.8605 27.3061 18.6667 25.8333 18.6667H22.5L13.8333 10V6.66667C13.8333 5.19391 12.6394 4 11.1667 4H8.13235C7.77599 4 7.59752 4.43085 7.84951 4.68284L9.83333 6.66667V9.33333H7.16667L5.18284 7.34951C4.93085 7.09752 4.5 7.27599 4.5 7.63235V10.6667C4.5 12.1394 5.69391 13.3333 7.16667 13.3333Z" fill="currentColor"/>
<path d="M20.2891 13.626L18.875 12.2118L23.7534 7.33336L23.1273 6.70714C22.9095 6.48939 22.8042 6.18347 22.8418 5.87784C22.8794 5.57222 23.0558 5.30096 23.3198 5.14254L26.6531 3.14254C27.0466 2.90644 27.5503 2.96844 27.8747 3.29292L29.2081 4.62626C29.5326 4.95072 29.5946 5.45438 29.3585 5.84786L27.3585 9.18119C27.2001 9.44524 26.9289 9.62158 26.6231 9.6592C26.3175 9.69683 26.0117 9.59154 25.7939 9.3738L25.1677 8.74758L20.2891 13.626Z" fill="currentColor"/>
<path d="M16.126 21.7872L10.4257 27.4876C8.99373 28.9196 6.67212 28.9196 5.2402 27.4876L5.01144 27.2589C3.57952 25.8269 3.57952 23.5053 5.01144 22.0734L10.7118 16.373L16.126 21.7872Z" fill="currentColor"/>
</svg>
